HIERARCHY
ROOT hip
{
  OFFSET 0 0 0
  CHANNELS 6 Xposition Yposition Zposition Zrotation Yrotation Xrotation
  JOINT abdomen
  {
    OFFSET 0 20.6881 -0.73152
    CHANNELS 3 Zrotation Xrotation Yrotation
    JOINT chest
    {
      OFFSET 0 11.7043 -0.48768
      CHANNELS 3 Zrotation Xrotation Yrotation
      JOINT neck
      {
        OFFSET 0 22.1894 -2.19456
        CHANNELS 3 Zrotation Xrotation Yrotation
        JOINT head
        {
          OFFSET -0.24384 7.07133 1.2192
          CHANNELS 3 Zrotation Xrotation Yrotation
          JOINT leftEye
          {
            OFFSET 4.14528 8.04674 8.04672
            CHANNELS 3 Zrotation Xrotation Yrotation
            End Site
            {
              OFFSET 1 0 0
            }
          }
          JOINT rightEye
          {
            OFFSET -3.6576 8.04674 8.04672
            CHANNELS 3 Zrotation Xrotation Yrotation
            End Site
            {
              OFFSET 1 0 0
            }
          }
        }
      }
      JOINT rCollar
      {
        OFFSET -2.68224 19.2634 -4.8768
        CHANNELS 3 Zrotation Xrotation Yrotation
        JOINT rShldr
        {
          OFFSET -8.77824 -1.95073 1.46304
          CHANNELS 3 Zrotation Xrotation Yrotation
          JOINT rForeArm
          {
            OFFSET -28.1742 -1.7115 0.48768
            CHANNELS 3 Zrotation Xrotation Yrotation
            JOINT rHand
            {
              OFFSET -22.5879 0.773209 7.07136
              CHANNELS 3 Zrotation Xrotation Yrotation
              JOINT rThumb1
              {
                OFFSET -1.2192 -0.487915 3.41376
                CHANNELS 3 Zrotation Xrotation Yrotation
                JOINT rThumb2
                {
                  OFFSET -3.37035 -0.52449 3.41376
                  CHANNELS 3 Zrotation Xrotation Yrotation
                  End Site
                  {
                    OFFSET -1.78271 -1.18214 1.43049
                  }
                }
              }
              JOINT rIndex1
              {
                OFFSET -7.75947 0.938293 5.60832
                CHANNELS 3 Zrotation Xrotation Yrotation
                JOINT rIndex2
                {
                  OFFSET -2.54057 -0.884171 1.56538
                  CHANNELS 3 Zrotation Xrotation Yrotation
                  End Site
                  {
                    OFFSET -1.62519 -0.234802 1.16502
                  }
                }
              }
              JOINT rMid1
              {
                OFFSET -8.24714 1.18213 3.41376
                CHANNELS 3 Zrotation Xrotation Yrotation
                JOINT rMid2
                {
                  OFFSET -3.10165 -0.590103 1.0647
                  CHANNELS 3 Zrotation Xrotation Yrotation
                  End Site
                  {
                    OFFSET -2.48547 -0.328903 0.83742
                  }
                }
              }
              JOINT rRing1
              {
                OFFSET -8.82822 0.546677 1.51678
                CHANNELS 3 Zrotation Xrotation Yrotation
                JOINT rRing2
                {
                  OFFSET -2.60934 -0.819778 -0.0198488
                  CHANNELS 3 Zrotation Xrotation Yrotation
                  End Site
                  {
                    OFFSET -2.33842 -0.294052 0.168128
                  }
                }
              }
              JOINT rPinky1
              {
                OFFSET -8.27202 -0.0477905 -0.4584
                CHANNELS 3 Zrotation Xrotation Yrotation
                JOINT rPinky2
                {
                  OFFSET -1.82734 -0.647385 -0.700984
                  CHANNELS 3 Zrotation Xrotation Yrotation
                  End Site
                  {
                    OFFSET -1.69225 -0.51767 -0.607171
                  }
                }
              }
            }
          }
        }
      }
      JOINT lCollar
      {
        OFFSET 2.68224 19.2634 -4.8768
        CHANNELS 3 Zrotation Xrotation Yrotation
        JOINT lShldr
        {
          OFFSET 8.77824 -1.95073 1.46304
          CHANNELS 3 Zrotation Xrotation Yrotation
          JOINT lForeArm
          {
            OFFSET 28.1742 -1.7115 0.48768
            CHANNELS 3 Zrotation Xrotation Yrotation
            JOINT lHand
            {
              OFFSET 22.5879 0.773209 7.07136
              CHANNELS 3 Zrotation Xrotation Yrotation
              JOINT lThumb1
              {
                OFFSET 1.2192 -0.487915 3.41376
                CHANNELS 3 Zrotation Xrotation Yrotation
                JOINT lThumb2
                {
                  OFFSET 3.37035 -0.52449 3.41376
                  CHANNELS 3 Zrotation Xrotation Yrotation
                  End Site
                  {
                    OFFSET 1.78271 -1.18214 1.43049
                  }
                }
              }
              JOINT lIndex1
              {
                OFFSET 7.75947 0.938293 5.60832
                CHANNELS 3 Zrotation Xrotation Yrotation
                JOINT lIndex2
                {
                  OFFSET 2.54057 -0.884171 1.56538
                  CHANNELS 3 Zrotation Xrotation Yrotation
                  End Site
                  {
                    OFFSET 1.62519 -0.234802 1.16502
                  }
                }
              }
              JOINT lMid1
              {
                OFFSET 8.24714 1.18213 3.41376
                CHANNELS 3 Zrotation Xrotation Yrotation
                JOINT lMid2
                {
                  OFFSET 3.10165 -0.590103 1.0647
                  CHANNELS 3 Zrotation Xrotation Yrotation
                  End Site
                  {
                    OFFSET 2.48547 -0.328903 0.83742
                  }
                }
              }
              JOINT lRing1
              {
                OFFSET 8.82822 0.546677 1.51678
                CHANNELS 3 Zrotation Xrotation Yrotation
                JOINT lRing2
                {
                  OFFSET 2.60934 -0.819778 -0.0198488
                  CHANNELS 3 Zrotation Xrotation Yrotation
                  End Site
                  {
                    OFFSET 2.33842 -0.294052 0.168128
                  }
                }
              }
              JOINT lPinky1
              {
                OFFSET 8.27202 -0.0477905 -0.4584
                CHANNELS 3 Zrotation Xrotation Yrotation
                JOINT lPinky2
                {
                  OFFSET 1.82734 -0.647385 -0.700984
                  CHANNELS 3 Zrotation Xrotation Yrotation
                  End Site
                  {
                    OFFSET 1.69225 -0.51767 -0.607171
                  }
                }
              }
            }
          }
        }
      }
    }
  }
  JOINT rButtock
  {
    OFFSET -8.77824 4.35084 1.2192
    CHANNELS 3 Zrotation Xrotation Yrotation
    JOINT rThigh
    {
      OFFSET 0 -1.70687 -2.19456
      CHANNELS 3 Zrotation Xrotation Yrotation
      JOINT rShin
      {
        OFFSET 0 -36.8199 0.73152
        CHANNELS 3 Zrotation Xrotation Yrotation
        JOINT rFoot
        {
          OFFSET 0.73152 -45.1104 -5.12064
          CHANNELS 3 Zrotation Xrotation Yrotation
          End Site
          {
            OFFSET -1.1221 -3.69964 12.103
          }
        }
      }
    }
  }
  JOINT lButtock
  {
    OFFSET 8.77824 4.35084 1.2192
    CHANNELS 3 Zrotation Xrotation Yrotation
    JOINT lThigh
    {
      OFFSET 0 -1.70687 -2.19456
      CHANNELS 3 Zrotation Xrotation Yrotation
      JOINT lShin
      {
        OFFSET 0 -36.8199 0.73152
        CHANNELS 3 Zrotation Xrotation Yrotation
        JOINT lFoot
        {
          OFFSET -0.73152 -45.1104 -5.12064
          CHANNELS 3 Zrotation Xrotation Yrotation
          End Site
          {
            OFFSET 1.1221 -3.69964 12.103
          }
        }
      }
    }
  }
}
MOTION
Frames:	6
Frame Time:	0.00833333
19.5809 83.6254 24.8453 -0.5424 8.8123 -2.696 -3.31526 8.76465 1.13622 5.82632 -3.51449 0.332879 5.28778 0.871802 -0.8594 -5.71681 7.69251 -2.61225 -0.0 0.0 0.0 -0.0 0.0 0.0 -2.62036e-14 -8.8663e-14 -3.01159e-14 53.1218 9.71184 -7.73628 -21.0881 -14.4451 41.3917 -0.0189544 -3.92734 -0.552827 9.34271e-10 -3.8087e-09 -9.63924e-10 1.61903e-09 -6.60028e-09 -1.67164e-09 9.34272e-10 -3.80869e-09 -9.63947e-10 7.73091 5.47488 0.417314 9.34266e-10 -3.80869e-09 -9.63921e-10 2.90554 0.965183 0.102902 9.34276e-10 -3.80869e-09 -9.63927e-10 10.2786 0.731801 0.0259123 9.34265e-10 -3.8087e-09 -9.63918e-10 2.22167 -0.733487 -0.20892 -2.62773e-14 -8.86535e-14 -3.03147e-14 -77.4395 25.9369 7.4765 23.6489 -18.4556 -48.5177 0.0860042 8.33658 -1.18005 1.52221e-11 -1.45995e-11 9.85578e-10 3.31684e-11 -1.08584e-11 1.70194e-09 1.52138e-11 -1.46003e-11 9.8559e-10 -7.73091 5.47488 -0.417314 1.5222e-11 -1.45995e-11 9.85587e-10 -2.90554 0.965183 -0.102902 1.52132e-11 -1.45993e-11 9.85582e-10 -10.2786 0.731801 -0.0259123 1.52291e-11 -1.46011e-11 9.85578e-10 -2.22167 -0.733487 0.20892 -2.03217e-16 0.0 -3.88251e-19 -37.6597 -22.3536 -28.0543 -0.614279 51.6175 1.28989 -3.0151 33.0788 6.6293 2.03217e-16 0.0 3.88251e-19 -2.83835 -9.07946 -3.64689 0.0794416 28.2062 -0.569691 3.4827 -7.08719 19.3909
19.4711 83.587 24.8205 -0.488 8.4197 -2.5611 -3.36556 8.6906 1.34795 5.75576 -3.54679 0.392373 5.37526 0.833416 -0.773842 -5.89089 7.63345 -2.46357 -0.0 0.0 0.0 -0.0 0.0 0.0 -3.04347e-14 -6.29707e-14 4.41154e-14 53.3236 9.73752 -7.69157 -21.0826 -14.4374 41.3776 -0.021247 -4.15775 -0.585371 6.4415e-10 -2.6645e-09 -6.7335e-10 1.11607e-09 -4.61764e-09 -1.16781e-09 6.44154e-10 -2.66449e-09 -6.73373e-10 7.73091 5.47488 0.417314 6.44147e-10 -2.6645e-09 -6.73348e-10 2.90554 0.965183 0.102902 6.44157e-10 -2.6645e-09 -6.73352e-10 10.2786 0.731801 0.0259123 6.44145e-10 -2.6645e-09 -6.73344e-10 2.22167 -0.733487 -0.20892 -3.05057e-14 -6.296e-14 4.39551e-14 -77.4575 25.2501 7.77549 23.5974 -18.3639 -48.3599 0.087415 8.40342 -1.18965 4.96863e-11 -8.10077e-11 8.02109e-10 9.16665e-11 -1.28313e-10 1.38568e-09 4.96761e-11 -8.10095e-11 8.02121e-10 -7.73091 5.47488 -0.417314 4.96856e-11 -8.10087e-11 8.02117e-10 -2.90554 0.965183 -0.102902 4.9675e-11 -8.10084e-11 8.02112e-10 -10.2786 0.731801 -0.0259123 4.96926e-11 -8.1011e-11 8.02107e-10 -2.22167 -0.733487 0.20892 -2.03217e-16 0.0 -3.88251e-19 -37.4665 -22.3363 -28.4512 -0.631455 52.0059 1.29249 -2.66023 31.361 6.18901 2.03217e-16 0.0 3.88251e-19 -2.78309 -9.2371 -3.37476 0.0814437 28.309 -0.568412 3.52668 -7.12298 19.4448
19.3605 83.5484 24.7902 -0.4066 8.0418 -2.4219 -3.45688 8.63655 1.5544 5.6971 -3.58141 0.449882 5.47289 0.760509 -0.680741 -6.08745 7.5775 -2.30472 -0.0 0.0 0.0 -0.0 0.0 0.0 -2.88672e-14 -3.58871e-14 1.24576e-13 53.532 9.81387 -7.63559 -21.0793 -14.4329 41.3692 -0.0235735 -4.38305 -0.617209 2.84839e-10 -1.20429e-09 -2.7202e-10 4.93073e-10 -2.08685e-09 -4.7157e-10 2.84847e-10 -1.20429e-09 -2.7204e-10 7.73091 5.47488 0.417314 2.84838e-10 -1.20429e-09 -2.72019e-10 2.90554 0.965183 0.102902 2.84847e-10 -1.20429e-09 -2.7202e-10 10.2786 0.731801 0.0259123 2.84836e-10 -1.20429e-09 -2.72014e-10 2.22167 -0.733487 -0.20892 -2.89438e-14 -3.58747e-14 1.24467e-13 -77.4349 24.5456 8.02404 23.5409 -18.2638 -48.1879 0.0886906 8.46353 -1.19829 1.1178e-11 -3.46995e-10 5.70156e-10 2.37128e-11 -5.91339e-10 9.86177e-10 1.11657e-11 -3.46997e-10 5.70168e-10 -7.73091 5.47488 -0.417314 1.11768e-11 -3.46996e-10 5.70158e-10 -2.90554 0.965183 -0.102902 1.11645e-11 -3.46996e-10 5.70157e-10 -10.2786 0.731801 -0.0259123 1.11826e-11 -3.47e-10 5.70148e-10 -2.22167 -0.733487 0.20892 -2.03217e-16 0.0 -3.88251e-19 -37.24 -22.3387 -28.7984 -0.650052 52.4149 1.29456 -2.30209 29.5141 5.71342 2.03217e-16 0.0 3.88251e-19 -2.7473 -9.40204 -3.09085 0.0835504 28.4116 -0.566864 3.5679 -7.15398 19.4848
19.2499 83.5087 24.7568 -0.3007 7.679 -2.2792 -3.57526 8.58377 1.75315 5.64489 -3.61759 0.505036 5.56978 0.679841 -0.585603 -6.28249 7.51823 -2.14285 -0.0 0.0 0.0 -0.0 0.0 0.0 -2.34565e-14 -1.32261e-14 1.76169e-13 53.7505 9.92653 -7.5806 -21.0787 -14.432 41.3675 -0.0257277 -4.57901 -0.64492 -2.0195e-11 5.91179e-11 8.33878e-11 -3.57876e-11 1.02977e-10 1.45113e-10 -2.01833e-11 5.91214e-11 8.33705e-11 7.73091 5.47488 0.417314 -2.01944e-11 5.91166e-11 8.33866e-11 2.90554 0.965183 0.102902 -2.01867e-11 5.91181e-11 8.33889e-11 10.2786 0.731801 0.0259123 -2.01975e-11 5.91198e-11 8.33942e-11 2.22167 -0.733487 -0.20892 -2.35406e-14 -1.32127e-14 1.76104e-13 -77.3733 23.8552 8.23088 23.4835 -18.1626 -48.0145 0.0894098 8.49754 -1.20318 -3.74872e-11 -5.63549e-10 3.34661e-10 -6.18783e-11 -9.68811e-10 5.80198e-10 -3.75011e-11 -5.63551e-10 3.34672e-10 -7.73091 5.47488 -0.417314 -3.74886e-11 -5.63551e-10 3.34657e-10 -2.90554 0.965183 -0.102902 -3.75021e-11 -5.63551e-10 3.34659e-10 -10.2786 0.731801 -0.0259123 -3.74843e-11 -5.63555e-10 3.34648e-10 -2.22167 -0.733487 0.20892 -2.03217e-16 0.0 -3.88251e-19 -36.9593 -22.3532 -29.0822 -0.668861 52.8109 1.29469 -1.92652 27.61 5.13012 2.03217e-16 0.0 3.88251e-19 -2.71755 -9.57751 -2.79689 0.0857246 28.5121 -0.56505 3.60697 -7.18539 19.5064
19.136 83.4703 24.7205 -0.1891 7.3328 -2.1324 -3.70652 8.51351 1.94172 5.59367 -3.65457 0.55746 5.65483 0.618177 -0.493929 -6.45196 7.44919 -1.98512 -0.0 0.0 0.0 -0.0 0.0 0.0 -1.61577e-14 -8.01739e-16 1.63799e-13 53.9824 10.0611 -7.53886 -21.081 -14.4351 41.3734 -0.027418 -4.72139 -0.665069 -1.47486e-10 6.12922e-10 2.36194e-10 -2.56318e-10 1.06271e-09 4.10268e-10 -1.47473e-10 6.12925e-10 2.36178e-10 7.73091 5.47488 0.417314 -1.47484e-10 6.1292e-10 2.36191e-10 2.90554 0.965183 0.102902 -1.47478e-10 6.12921e-10 2.36196e-10 10.2786 0.731801 0.0259123 -1.47488e-10 6.12924e-10 2.36201e-10 2.22167 -0.733487 -0.20892 -1.62453e-14 -7.88927e-16 1.63749e-13 -77.274 23.2104 8.40452 23.4295 -18.0679 -47.8524 0.0891454 8.48608 -1.20153 -3.34936e-11 -4.8166e-10 1.40565e-10 -5.62922e-11 -8.29606e-10 2.44511e-10 -3.35079e-11 -4.81662e-10 1.40577e-10 -7.73091 5.47488 -0.417314 -3.34951e-11 -4.81663e-10 1.40558e-10 -2.90554 0.965183 -0.102902 -3.35086e-11 -4.81662e-10 1.40561e-10 -10.2786 0.731801 -0.0259123 -3.34912e-11 -4.81666e-10 1.40549e-10 -2.22167 -0.733487 0.20892 -2.03217e-16 0.0 -3.88251e-19 -36.6029 -22.3719 -29.2888 -0.686612 53.16 1.29143 -1.5276 25.719 4.36892 2.03217e-16 0.0 3.88251e-19 -2.68038 -9.76673 -2.49461 0.0879298 28.6084 -0.562973 3.64449 -7.2224 19.5051
19.0141 83.4325 24.6821 -0.076 6.9966 -1.9766 -3.85693 8.42935 2.12194 5.54304 -3.6925 0.607466 5.72545 0.582405 -0.408014 -6.58925 7.3574 -1.83605 -0.0 0.0 0.0 -0.0 0.0 0.0 -4.7767e-15 -5.3689e-15 3.69724e-14 54.2287 10.2191 -7.50841 -21.0853 -14.4411 41.3846 -0.0284815 -4.80578 -0.677018 1.54285e-11 1.18739e-11 6.0017e-11 2.66069e-11 2.05287e-11 1.04652e-10 1.54401e-11 1.18776e-11 6e-11 7.73091 5.47488 0.417314 1.543e-11 1.18716e-11 6.00111e-11 2.90554 0.965183 0.102902 1.54369e-11 1.18727e-11 6.00174e-11 10.2786 0.731801 0.0259123 1.54275e-11 1.18748e-11 6.00233e-11 2.22167 -0.733487 -0.20892 -4.86162e-15 -5.35955e-15 3.68928e-14 -77.1335 22.6086 8.54115 23.3779 -17.9781 -47.6978 0.0876941 8.4179 -1.19173 6.02209e-11 1.27326e-10 -1.11717e-11 1.04453e-10 2.21781e-10 -2.02278e-11 6.02082e-11 1.27324e-10 -1.11568e-11 -7.73091 5.47488 -0.417314 6.02196e-11 1.27324e-10 -1.11771e-11 -2.90554 0.965183 -0.102902 6.02081e-11 1.27325e-10 -1.1174e-11 -10.2786 0.731801 -0.0259123 6.02246e-11 1.27323e-10 -1.11875e-11 -2.22167 -0.733487 0.20892 -2.03217e-16 0.0 -3.88251e-19 -36.1722 -22.3925 -29.4194 -0.703973 53.4678 1.28352 -1.10298 23.8271 3.3654 2.03217e-16 0.0 3.88251e-19 -2.64175 -9.96235 -2.18598 0.0900931 28.6946 -0.560429 3.68059 -7.26259 19.4845
